HIERARCHY
ROOT Hips
{
	OFFSET 0.000000 0.000000 0.000000
	CHANNELS 6 Xposition Yposition Zposition Zrotation Yrotation Xrotation 
	JOINT LHipJoint
	{
		OFFSET 0.000000 0.000000 0.000000
		CHANNELS 3 Zrotation Yrotation Xrotation
		JOINT LeftUpLeg
		{
			OFFSET 1.363060 -1.794630 0.839290
			CHANNELS 3 Zrotation Yrotation Xrotation
			JOINT LeftLeg
			{
				OFFSET 2.448110 -6.726130 0.000000
				CHANNELS 3 Zrotation Yrotation Xrotation
				JOINT LeftFoot
				{
					OFFSET 2.562200 -7.039590 0.000000
					CHANNELS 3 Zrotation Yrotation Xrotation
					JOINT LeftToeBase
					{
						OFFSET 0.157640 -0.433110 2.322550
						CHANNELS 3 Zrotation Yrotation Xrotation
						End Site
						{
							OFFSET 0.000000 0.000000 0.000000
						}
					}
				}
			}
		}
	}
	JOINT RHipJoint
	{
		OFFSET 0.000000 0.000000 0.000000
		CHANNELS 3 Zrotation Yrotation Xrotation
		JOINT RightUpLeg
		{
			OFFSET -1.305520 -1.794630 0.839290
			CHANNELS 3 Zrotation Yrotation Xrotation
			JOINT RightLeg
			{
				OFFSET -2.542530 -6.985550 0.000000
				CHANNELS 3 Zrotation Yrotation Xrotation
				JOINT RightFoot
				{
					OFFSET -2.568260 -7.056230 0.000000
					CHANNELS 3 Zrotation Yrotation Xrotation
					JOINT RightToeBase
					{
						OFFSET -0.164730 -0.452590 2.363150
						CHANNELS 3 Zrotation Yrotation Xrotation
						End Site
						{
							OFFSET 0.000000 0.000000 0.000000
						}
					}
				}
			}
		}
	}
	JOINT LowerBack
	{
		OFFSET 0.000000 0.000000 0.000000
		CHANNELS 3 Zrotation Yrotation Xrotation
		JOINT Spine
		{
			OFFSET 0.028270 2.035590 -0.193380
			CHANNELS 3 Zrotation Yrotation Xrotation
			JOINT Spine1
			{
				OFFSET 0.056720 2.048850 -0.042750
				CHANNELS 3 Zrotation Yrotation Xrotation
				JOINT Neck
				{
					OFFSET 0.000000 0.000000 0.000000
					CHANNELS 3 Zrotation Yrotation Xrotation
					JOINT Neck1
					{
						OFFSET -0.054170 1.746240 0.172020
						CHANNELS 3 Zrotation Yrotation Xrotation
						JOINT Head
						{
							OFFSET 0.104070 1.761360 -0.123970
							CHANNELS 3 Zrotation Yrotation Xrotation
							End Site
							{
								OFFSET 0.000000 0.000000 0.000000
							}
						}
					}
				}
				JOINT LeftShoulder
				{
					OFFSET 0.000000 0.000000 0.000000
					CHANNELS 3 Zrotation Yrotation Xrotation
					JOINT LeftArm
					{
						OFFSET 3.362410 1.200890 -0.311210
						CHANNELS 3 Zrotation Yrotation Xrotation
						JOINT LeftForeArm
						{
							OFFSET 4.983000 -0.000000 -0.000000
							CHANNELS 3 Zrotation Yrotation Xrotation
							JOINT LeftHand
							{
								OFFSET 3.483560 -0.000000 -0.000000
								CHANNELS 3 Zrotation Yrotation Xrotation
								JOINT LeftFingerBase
								{
									OFFSET 0.000000 0.000000 0.000000
									CHANNELS 3 Zrotation Yrotation Xrotation
									JOINT LeftHandIndex1
									{
										OFFSET 0.715260 -0.000000 -0.000000
										CHANNELS 3 Zrotation Yrotation Xrotation
										End Site
										{
											OFFSET 0.000000 0.000000 0.000000
										}
									}
								}
								JOINT LThumb
								{
									OFFSET 0.000000 0.000000 0.000000
									CHANNELS 3 Zrotation Yrotation Xrotation
									End Site
									{
										OFFSET 0.000000 0.000000 0.000000
									}
								}
							}
						}
					}
				}
				JOINT RightShoulder
				{
					OFFSET 0.000000 0.000000 0.000000
					CHANNELS 3 Zrotation Yrotation Xrotation
					JOINT RightArm
					{
						OFFSET -3.136600 1.374050 -0.404650
						CHANNELS 3 Zrotation Yrotation Xrotation
						JOINT RightForeArm
						{
							OFFSET -5.241900 -0.000000 -0.000000
							CHANNELS 3 Zrotation Yrotation Xrotation
							JOINT RightHand
							{
								OFFSET -3.444170 -0.000000 -0.000000
								CHANNELS 3 Zrotation Yrotation Xrotation
								JOINT RightFingerBase
								{
									OFFSET 0.000000 0.000000 0.000000
									CHANNELS 3 Zrotation Yrotation Xrotation
									JOINT RightHandIndex1
									{
										OFFSET -0.622530 -0.000000 -0.000000
										CHANNELS 3 Zrotation Yrotation Xrotation
										End Site
										{
											OFFSET 0.000000 0.000000 0.000000
										}
									}
								}
								JOINT RThumb
								{
									OFFSET 0.000000 0.000000 0.000000
									CHANNELS 3 Zrotation Yrotation Xrotation
									End Site
									{
										OFFSET 0.000000 0.000000 0.000000
									}
								}
							}
						}
					}
				}
			}
		}
	}
}
MOTION
Frames: 10
Frame Time: 0.008333
0.613120 18.426791 10.384707 -11.593825 -3.587807 13.533291 6.797453 6.087387 1.044007 -28.173781 -53.633501 33.333253 -4.567348 -2.914300 -3.207459 -5.060903 42.747269 -55.791355 2.231300 9.332000 26.839600 1.427241 -4.782505 2.151199 23.727245 27.203507 1.516966 3.648663 -0.338626 2.414716 7.692205 -23.915418 -3.923841 -0.001600 -0.260000 0.714400 -3.606595 1.572545 -4.102586 31.806905 3.914337 -0.533439 -12.325006 -1.389662 -12.394738 -9.776966 -5.359543 -21.943752 2.006861 -4.498958 49.007914 -0.112400 -1.205400 14.581900 -8.010159 -6.612105 1.150082 -84.182638 8.608414 52.232453 140.994515 -44.063545 -106.032800 -0.289246 -1.264875 -15.795862 19.415625 -7.978721 -2.453900 -7.125000 0.000000 0.000000 -4.930200 22.812600 2.642500 7.530150 9.317075 3.764414 47.785128 24.450827 51.344833 -136.570868 45.186001 -102.889972 -1.314232 0.677901 29.803373 20.522240 -21.727832 -8.399200 7.125000 0.000000 0.000000 45.990700 -46.038800 -1.506100 
0.612910 18.426581 10.387867 -11.603733 -3.449742 13.603134 6.792784 6.071184 0.990487 -28.383740 -53.864721 33.602459 -4.568042 -2.889862 -3.178074 -4.973907 42.783795 -55.995757 2.223700 9.317300 26.793000 1.426982 -4.771403 2.105534 23.748730 27.146664 1.491213 3.650858 -0.340603 2.406233 7.689132 -23.915240 -3.993211 -0.001400 -0.245600 0.674800 -3.643916 1.540031 -3.921845 31.807443 3.975338 -1.010996 -12.271380 -1.424468 -12.341890 -9.774210 -5.358546 -22.025862 1.992348 -4.489819 49.310679 -0.106800 -1.204700 14.722200 -8.022501 -6.564815 1.176120 -84.369755 8.870704 52.054558 140.765404 -44.235008 -105.885535 -0.295347 -1.270270 -15.666935 19.584471 -8.034688 -2.494800 -7.125000 0.000000 0.000000 -4.802300 22.752600 2.580100 7.553387 9.264305 3.823950 48.432766 23.700171 51.786427 -136.175512 45.529684 -102.606305 -1.285221 0.661003 29.719341 21.458839 -21.086618 -8.531000 7.125000 0.000000 0.000000 46.206600 -45.411000 -0.603900 
0.612278 18.425211 10.392080 -11.624826 -3.246788 13.709189 6.782710 6.044202 0.905993 -28.498631 -54.079557 33.808776 -4.565024 -2.870994 -3.187884 -4.965896 42.846501 -56.081814 2.209800 9.290000 26.706700 1.408684 -4.758737 2.029806 23.831924 27.113850 1.498529 3.655780 -0.337960 2.380284 7.716271 -24.005790 -4.126569 -0.001500 -0.251500 0.691000 -3.566772 1.486133 -3.610666 31.669615 4.062137 -1.756282 -12.244852 -1.482811 -12.291541 -9.871368 -5.333246 -22.129467 2.303331 -4.550353 49.707887 0.005100 -1.179900 14.897400 -8.025635 -6.500443 1.226603 -84.503997 9.205084 51.879692 140.570685 -44.376796 -105.766134 -0.287604 -1.278222 -15.542248 19.654671 -7.801717 -2.413800 -7.125000 0.000000 0.000000 -4.757800 23.008400 2.528100 7.627907 9.210297 3.904897 49.183159 22.832875 52.318848 -135.849784 45.853341 -102.344547 -1.264947 0.653084 29.598086 22.012188 -20.839283 -8.653800 7.125000 0.000000 0.000000 46.420900 -45.145700 -0.216200 
0.611330 18.423316 10.397874 -11.606527 -3.039463 13.820155 6.777468 6.015491 0.807571 -28.728291 -54.314574 34.097934 -4.562954 -2.854366 -3.203587 -4.903828 42.876609 -56.233916 2.220000 9.310100 26.770200 1.396362 -4.744527 1.943623 23.867963 27.084872 1.536640 3.662857 -0.324230 2.324751 7.744839 -24.096864 -4.279408 -0.003900 -0.403000 1.107200 -3.588825 1.410480 -3.326503 31.577469 4.170674 -2.653870 -12.192353 -1.537157 -12.147024 -9.964711 -5.239556 -21.922932 2.638720 -4.586577 49.908029 0.129200 -1.140400 14.952800 -8.029019 -6.460850 1.286695 -84.627761 9.589543 51.700984 140.372142 -44.512826 -105.648354 -0.277529 -1.286910 -15.436997 19.681589 -7.534936 -2.313800 -7.125000 0.000000 0.000000 -4.746900 23.303000 2.490100 7.700796 9.149002 3.984960 49.964816 21.864936 52.928597 -135.801610 46.012971 -102.242118 -1.246330 0.622407 29.129661 22.995913 -21.450322 -9.288700 7.125000 0.000000 0.000000 47.498200 -45.459200 -0.705300 
0.610171 18.421841 10.403245 -11.546323 -2.879952 13.925528 6.763558 5.979574 0.700127 -28.930698 -54.454322 34.290972 -4.559746 -2.836436 -3.214187 -4.889137 42.910663 -56.296463 2.228600 9.326800 26.823200 1.371024 -4.731298 1.848862 23.867970 27.100605 1.591454 3.669222 -0.317173 2.291171 7.759276 -24.139464 -4.471789 -0.009700 -0.637100 1.750700 -3.593891 1.380923 -2.982348 31.324082 4.355064 -3.664243 -12.112913 -1.549247 -11.968139 -9.926141 -5.134074 -21.606974 2.822771 -4.601517 50.010151 0.190100 -1.111700 14.931400 -8.040639 -6.421119 1.360001 -84.626891 9.995333 51.598901 140.099867 -44.703464 -105.480355 -0.285760 -1.288727 -15.414290 19.761335 -7.690154 -2.381400 -7.125000 0.000000 0.000000 -4.681000 23.135900 2.473300 7.801004 9.075907 4.066824 50.832612 20.805120 53.371733 -135.723352 46.192833 -102.138210 -1.227700 0.609042 28.908333 23.528223 -21.559348 -9.550900 7.125000 0.000000 0.000000 47.929300 -45.465100 -0.725100 
0.609329 18.420050 10.408196 -11.443321 -2.772719 13.973957 6.735520 5.954128 0.629054 -29.322088 -54.632924 34.670060 -4.560371 -2.821160 -3.210860 -4.768504 42.903713 -56.510585 2.239700 9.348400 26.891300 1.338565 -4.726653 1.776720 23.828011 27.104634 1.660181 3.674000 -0.311557 2.261958 7.794577 -24.237538 -4.571356 -0.008100 -0.580300 1.594800 -3.585446 1.372501 -2.679964 30.979093 4.497032 -4.418364 -12.001311 -1.538942 -11.866167 -9.763448 -5.044510 -21.430537 2.837659 -4.575188 50.106756 0.189100 -1.087100 14.912400 -8.059324 -6.370584 1.416750 -84.564196 10.328272 51.565472 139.798287 -44.923896 -105.284169 -0.304719 -1.289917 -15.512728 19.963357 -8.076137 -2.554100 -7.125000 0.000000 0.000000 -4.515400 22.714400 2.429000 7.903409 9.004111 4.125222 51.658039 19.798457 53.605859 -135.618591 46.376913 -102.037967 -1.206288 0.599628 28.735548 23.970938 -21.244877 -9.600300 7.125000 0.000000 0.000000 48.003700 -45.167600 -0.262900 
0.608802 18.417312 10.413778 -11.281016 -2.709107 13.966916 6.703930 5.941799 0.595061 -29.918769 -54.827905 35.223949 -4.564805 -2.819106 -3.214128 -4.541629 42.860380 -56.877206 2.267600 9.402500 27.062800 1.309298 -4.728733 1.734567 23.705677 27.051757 1.733822 3.678529 -0.293073 2.200847 7.840875 -24.363399 -4.544463 -0.002700 -0.334000 0.917600 -3.646050 1.343416 -2.491274 30.672004 4.547431 -4.867139 -11.856051 -1.529794 -11.827815 -9.627291 -4.967060 -21.351944 2.861269 -4.546118 50.216582 0.196200 -1.062200 14.912700 -8.075522 -6.322263 1.449643 -84.520980 10.598977 51.519871 139.620142 -45.053453 -105.176315 -0.299560 -1.295288 -15.598469 19.928503 -7.987587 -2.514300 -7.125000 0.000000 0.000000 -4.542600 22.815800 2.433100 7.990027 8.939884 4.155231 52.368729 18.914306 53.781836 -135.505115 46.550508 -101.932301 -1.187051 0.589545 28.721837 24.505776 -20.957012 -9.693700 7.125000 0.000000 0.000000 48.152800 -44.870200 0.205200 
0.609013 18.414784 10.417781 -11.154737 -2.655694 13.954727 6.687420 5.931535 0.569662 -30.278004 -54.887455 35.531125 -4.566856 -2.836659 -3.263721 -4.479199 42.910135 -57.030040 2.276300 9.419300 27.116100 1.284699 -4.731488 1.711778 23.598706 26.975071 1.775736 3.682343 -0.272970 2.144316 7.859696 -24.411362 -4.518477 -0.001500 -0.251700 0.691700 -3.687681 1.306032 -2.366378 30.465873 4.548501 -5.142211 -11.764194 -1.536492 -11.834863 -9.669085 -4.914361 -21.366896 3.130555 -4.579918 50.334851 0.290500 -1.029800 14.945400 -8.073202 -6.290594 1.472368 -84.507204 10.834814 51.408604 139.531480 -45.111681 -105.135719 -0.277956 -1.297917 -15.568372 19.644207 -7.581625 -2.323500 -7.125000 0.000000 0.000000 -4.769500 23.265100 2.506200 8.050925 8.919053 4.175368 52.622566 18.604564 54.159096 -135.423550 46.653601 -101.833000 -1.185367 0.583075 28.509651 24.814632 -21.535118 -10.075400 7.125000 0.000000 0.000000 48.761200 -45.259000 -0.416700 
0.608697 18.412783 10.420519 -11.084423 -2.613208 13.980992 6.669877 5.923806 0.538372 -30.580175 -55.014369 35.843368 -4.569274 -2.843034 -3.302250 -4.377723 42.946839 -57.248077 2.279700 9.425800 27.136600 1.265690 -4.725700 1.673859 23.551572 26.944626 1.804249 3.685017 -0.265433 2.118297 7.874298 -24.451222 -4.545607 -0.001700 -0.262600 0.721500 -3.686707 1.259996 -2.228613 30.285177 4.559934 -5.492131 -11.679465 -1.558274 -11.807226 -9.785493 -4.843367 -21.379548 3.505688 -4.622049 50.418947 0.433900 -0.992600 14.978400 -8.071807 -6.231898 1.497520 -84.509398 11.093904 51.294167 139.418389 -45.188921 -105.073342 -0.265520 -1.303041 -15.546058 19.527898 -7.330864 -2.214000 -7.125000 0.000000 0.000000 -4.866100 23.543400 2.526100 8.127667 8.831961 4.195188 53.832077 17.297459 54.124510 -135.422716 46.788685 -101.812914 -1.167916 0.589891 28.612504 24.634771 -20.863628 -9.706900 7.125000 0.000000 0.000000 48.174300 -44.793500 0.327000 
0.605853 18.413625 10.417570 -11.172008 -2.521427 14.012816 6.682666 5.927355 0.533500 -30.346426 -55.079828 35.709347 -4.564716 -2.841504 -3.316848 -4.406013 42.881937 -57.149719 2.276300 9.419300 27.116000 1.283910 -4.721094 1.663105 23.670025 27.089154 1.823149 3.685919 -0.286954 2.170960 7.910902 -24.551222 -4.731461 -0.002600 -0.326400 0.896700 -3.702821 1.208983 -2.279369 30.456477 4.505706 -5.480059 -11.719809 -1.601719 -11.801018 -9.909368 -4.803829 -21.374712 3.826306 -4.660611 50.299494 0.546100 -0.958500 14.952700 -8.056122 -6.241022 1.494174 -84.506067 11.204015 51.194027 139.284964 -45.275946 -104.989576 -0.263943 -1.302961 -15.529479 19.489610 -7.293641 -2.195700 -7.125000 0.000000 0.000000 -4.896200 23.584500 2.537200 8.086750 8.853513 4.201177 53.806666 17.674029 54.505982 -135.284867 46.848921 -101.687407 -1.182332 0.589744 28.018432 24.532916 -21.909749 -10.125500 7.125000 0.000000 0.000000 48.853200 -45.602200 -0.968000 
